<mxfile host="app.diagrams.net" modified="2024-05-18T19:41:33.933Z" agent="Mozilla/5.0 (Windows NT 10.0; Win64; x64) AppleWebKit/537.36 (KHTML, like Gecko) Chrome/124.0.0.0 Safari/537.36" version="24.0.1" etag="5GPv9wPG4Ci26JLX9wst" type="github">
  <diagram name="Page-1" id="M6WX8ptpPhpakJDy2QEp">
    <mxGraphModel>
      <root>
        <mxCell id="0" />
        <mxCell id="1" parent="0" />
      </root>
    </mxGraphModel>
  </diagram>
</mxfile>
